{
	"nodes":[{
		"name":"Tube",
		"mesh":0
	}],
	"asset":{
		"version":"2.0",
		"generator":"Created using the official Cinema 4D glTF Exporter 1.000x284978"
	},
	"scenes":[{
		"nodes":[0]
	}],
	"meshes":[{
		"name":"Tube",
		"primitives":[{
			"attributes":{
				"POSITION":1
			},
			"indices":0
		}]
	}],
	"accessors":[{
		"bufferView":0,
		"type":"SCALAR",
		"componentType":5123,
		"count":960,
		"byteOffset":0,
		"min":[0],
		"max":[159]
	},
	{
		"bufferView":1,
		"type":"VEC3",
		"componentType":5126,
		"count":160,
		"byteOffset":0,
		"min":[-1500.0,
		-216.02003479003907,
		-1500.0],
		"max":[1500.0,
		216.02003479003907,
		1500.0]
	}],
	"bufferViews":[{
		"buffer":0,
		"byteOffset":0,
		"byteLength":1920,
		"target":34963
	},
	{
		"buffer":0,
		"byteOffset":1920,
		"byteLength":1920,
		"target":34962
	}],
	"buffers":[{
		"uri":"data:application/octet-stream;base64,",
		"byteLength":3840
	}]
}